solid OpenSCAD_Model
  facet normal -1 0 0
    outer loop
      vertex 0 100 0
      vertex 0 6 6
      vertex 0 100 6
    endloop
  endfacet
  facet normal -1 0 0
    outer loop
      vertex 0 0 0
      vertex 0 6 6
      vertex 0 100 0
    endloop
  endfacet
  facet normal -1 0 0
    outer loop
      vertex 0 0 16
      vertex 0 6 6
      vertex 0 0 0
    endloop
  endfacet
  facet normal -1 0 0
    outer loop
      vertex 0 6 6
      vertex 0 0 16
      vertex 0 6 16
    endloop
  endfacet
  facet normal -0 0 1
    outer loop
      vertex 0 100 6
      vertex 80 6 6
      vertex 80 100 6
    endloop
  endfacet
  facet normal 0 0 1
    outer loop
      vertex 80 6 6
      vertex 0 100 6
      vertex 0 6 6
    endloop
  endfacet
  facet normal 1 0 0
    outer loop
      vertex 80 6 16
      vertex 80 0 16
      vertex 80 6 6
    endloop
  endfacet
  facet normal 1 -0 0
    outer loop
      vertex 80 6 6
      vertex 80 100 0
      vertex 80 100 6
    endloop
  endfacet
  facet normal 1 0 0
    outer loop
      vertex 80 6 6
      vertex 80 0 0
      vertex 80 100 0
    endloop
  endfacet
  facet normal 1 0 0
    outer loop
      vertex 80 0 0
      vertex 80 6 6
      vertex 80 0 16
    endloop
  endfacet
  facet normal 0 1 -0
    outer loop
      vertex 80 100 0
      vertex 0 100 6
      vertex 80 100 6
    endloop
  endfacet
  facet normal 0 1 0
    outer loop
      vertex 0 100 6
      vertex 80 100 0
      vertex 0 100 0
    endloop
  endfacet
  facet normal 0 0 -1
    outer loop
      vertex 0 0 0
      vertex 80 100 0
      vertex 80 0 0
    endloop
  endfacet
  facet normal -0 0 -1
    outer loop
      vertex 80 100 0
      vertex 0 0 0
      vertex 0 100 0
    endloop
  endfacet
  facet normal 0 -1 0
    outer loop
      vertex 0 0 0
      vertex 80 0 16
      vertex 0 0 16
    endloop
  endfacet
  facet normal 0 -1 -0
    outer loop
      vertex 80 0 16
      vertex 0 0 0
      vertex 80 0 0
    endloop
  endfacet
  facet normal -1 0 0
    outer loop
      vertex 0 105.796 4.44709
      vertex 0 118.117 73.6148
      vertex 0 123.913 72.0619
    endloop
  endfacet
  facet normal -1 0 0
    outer loop
      vertex 0 118.117 73.6148
      vertex 0 105.796 4.44709
      vertex 0 100 6
    endloop
  endfacet
  facet normal -0 0.258798 0.965931
    outer loop
      vertex 0 123.913 72.0619
      vertex 80 118.117 73.6148
      vertex 80 123.913 72.0619
    endloop
  endfacet
  facet normal 0 0.258798 0.965931
    outer loop
      vertex 80 118.117 73.6148
      vertex 0 123.913 72.0619
      vertex 0 118.117 73.6148
    endloop
  endfacet
  facet normal 1 0 0
    outer loop
      vertex 80 118.117 73.6148
      vertex 80 105.796 4.44709
      vertex 80 123.913 72.0619
    endloop
  endfacet
  facet normal 1 0 -0
    outer loop
      vertex 80 105.796 4.44709
      vertex 80 118.117 73.6148
      vertex 80 100 6
    endloop
  endfacet
  facet normal 0 0.965927 -0.258815
    outer loop
      vertex 80 105.796 4.44709
      vertex 0 123.913 72.0619
      vertex 80 123.913 72.0619
    endloop
  endfacet
  facet normal 0 0.965927 -0.258815
    outer loop
      vertex 0 123.913 72.0619
      vertex 80 105.796 4.44709
      vertex 0 105.796 4.44709
    endloop
  endfacet
  facet normal 0 -0.2588 -0.965931
    outer loop
      vertex 0 100 6
      vertex 80 105.796 4.44709
      vertex 80 100 6
    endloop
  endfacet
  facet normal -0 -0.2588 -0.965931
    outer loop
      vertex 80 105.796 4.44709
      vertex 0 100 6
      vertex 0 105.796 4.44709
    endloop
  endfacet
  facet normal 0 -0.965927 0.258815
    outer loop
      vertex 0 100 6
      vertex 80 118.117 73.6148
      vertex 0 118.117 73.6148
    endloop
  endfacet
  facet normal 0 -0.965927 0.258815
    outer loop
      vertex 80 118.117 73.6148
      vertex 0 100 6
      vertex 80 100 6
    endloop
  endfacet
  facet normal -0 0 1
    outer loop
      vertex 0 6 16
      vertex 80 0 16
      vertex 80 6 16
    endloop
  endfacet
  facet normal 0 0 1
    outer loop
      vertex 80 0 16
      vertex 0 6 16
      vertex 0 0 16
    endloop
  endfacet
  facet normal 0 1 -0
    outer loop
      vertex 80 6 6
      vertex 0 6 16
      vertex 80 6 16
    endloop
  endfacet
  facet normal 0 1 0
    outer loop
      vertex 0 6 16
      vertex 80 6 6
      vertex 0 6 6
    endloop
  endfacet
endsolid OpenSCAD_Model
